<?xml version="1.0" encoding="UTF-8"?>
<!DOCTYPE svg PUBLIC "-//W3C//DTD SVG 1.1//EN" "http://www.w3.org/Graphics/SVG/1.1/DTD/svg11.dtd">
<svg xmlns="http://www.w3.org/2000/svg" version="1.1" width="1198px" height="1198px" style="shape-rendering:geometricPrecision; text-rendering:geometricPrecision; image-rendering:optimizeQuality; fill-rule:evenodd; clip-rule:evenodd" xmlns:xlink="http://www.w3.org/1999/xlink">
<g><path style="opacity:1" fill="#2d4161" d="M 270.5,0.5 C 491.167,0.5 711.833,0.5 932.5,0.5C 1041.49,15.881 1121.33,72.2144 1172,169.5C 1183.23,194.02 1191.73,219.353 1197.5,245.5C 1197.5,480.5 1197.5,715.5 1197.5,950.5C 1172.52,1068.15 1103.19,1146.82 989.5,1186.5C 972.501,1190.72 955.501,1194.38 938.5,1197.5C 713.833,1197.5 489.167,1197.5 264.5,1197.5C 254.959,1195.73 245.292,1193.89 235.5,1192C 216.784,1186.26 198.118,1180.43 179.5,1174.5C 114.128,1142.96 64.628,1094.96 31,1030.5C 12.805,991.197 3.13835,949.864 2,906.5C 1.01503,694.487 1.34836,482.487 3,270.5C 16.5469,164.016 70.0469,84.849 163.5,33C 197.35,15.7933 233.016,4.96 270.5,0.5 Z"/></g>
<g><path style="opacity:0.999" fill="#fdfefe" d="M 932.5,0.5 C 1020.83,0.5 1109.17,0.5 1197.5,0.5C 1197.5,82.1667 1197.5,163.833 1197.5,245.5C 1191.73,219.353 1183.23,194.02 1172,169.5C 1121.33,72.2144 1041.49,15.881 932.5,0.5 Z"/></g>
<g><path style="opacity:1" fill="#45cacc" d="M 548.5,269.5 C 583.833,269.5 619.167,269.5 654.5,269.5C 654.333,291.503 654.5,313.503 655,335.5C 655.833,337.667 657.333,339.167 659.5,340C 666.246,341.353 672.913,343.02 679.5,345C 681.833,345.667 684.167,345.667 686.5,345C 696.793,327.582 706.96,310.082 717,292.5C 718.041,290.415 719.541,288.748 721.5,287.5C 751.997,304.914 782.331,322.581 812.5,340.5C 801.167,360.167 789.833,379.833 778.5,399.5C 786.195,407.029 794.028,414.363 802,421.5C 821.618,410.717 841.118,399.717 860.5,388.5C 878.552,418.771 896.219,449.271 913.5,480C 894.278,492.199 874.778,504.032 855,515.5C 857.154,525.118 859.487,534.785 862,544.5C 862.75,545.126 863.584,545.626 864.5,546C 886.831,546.5 909.164,546.667 931.5,546.5C 931.5,581.833 931.5,617.167 931.5,652.5C 909.164,652.333 886.831,652.5 864.5,653C 862.741,654.008 861.574,655.508 861,657.5C 858.964,666.248 856.964,674.915 855,683.5C 874.778,694.968 894.278,706.801 913.5,719C 896.219,749.729 878.552,780.229 860.5,810.5C 840.958,799.23 821.291,788.23 801.5,777.5C 795.078,782.417 789.078,787.917 783.5,794C 782.833,794.667 782.167,794.667 781.5,794C 656.5,669 531.5,544 406.5,419C 412.765,412.904 418.765,406.737 424.5,400.5C 413.605,380.267 402.272,360.267 390.5,340.5C 420.771,322.448 451.271,304.781 482,287.5C 493.87,306.387 505.37,325.553 516.5,345C 518.833,345.667 521.167,345.667 523.5,345C 530.75,342.687 538.084,340.687 545.5,339C 546.701,338.097 547.535,336.931 548,335.5C 548.5,313.503 548.667,291.503 548.5,269.5 Z"/></g>
<g><path style="opacity:1" fill="#2d4261" d="M 569.5,290.5 C 590.833,290.5 612.167,290.5 633.5,290.5C 633.5,312.5 633.5,334.5 633.5,356.5C 639.857,357.471 646.19,358.638 652.5,360C 666.863,364.237 681.196,368.237 695.5,372C 706.626,353.583 717.626,335.083 728.5,316.5C 746.5,326.833 764.5,337.167 782.5,347.5C 783.521,348.002 783.688,348.668 783,349.5C 771.827,367.529 761.494,385.862 752,404.5C 767.014,419.681 782.181,434.681 797.5,449.5C 815.833,438.833 834.167,428.167 852.5,417.5C 863.419,435.669 874.086,454.003 884.5,472.5C 866.084,483.123 847.917,494.123 830,505.5C 829.333,507.167 829.333,508.833 830,510.5C 836.874,528.996 841.707,547.996 844.5,567.5C 866.5,567.5 888.5,567.5 910.5,567.5C 910.5,588.833 910.5,610.167 910.5,631.5C 888.5,631.5 866.5,631.5 844.5,631.5C 840.733,651.899 835.4,671.899 828.5,691.5C 829.04,692.748 829.707,693.915 830.5,695C 848.889,704.901 866.889,715.401 884.5,726.5C 874.086,744.997 863.419,763.331 852.5,781.5C 834.229,770.447 815.729,759.781 797,749.5C 791.346,753.821 786.346,758.821 782,764.5C 764.093,747.262 746.926,729.428 730.5,711C 777.71,650.096 784.21,584.929 750,515.5C 715.444,459.291 664.944,430.625 598.5,429.5C 556.348,430.598 519.515,444.932 488,472.5C 470.638,455.472 453.638,438.138 437,420.5C 436.333,419.833 436.333,419.167 437,418.5C 442.316,414.351 447.149,409.685 451.5,404.5C 441.033,385.538 430.367,366.705 419.5,348C 437.833,337.5 456.167,327 474.5,316.5C 485.123,334.916 496.123,353.083 507.5,371C 509.167,371.667 510.833,371.667 512.5,371C 530.996,364.126 549.996,359.293 569.5,356.5C 569.5,334.5 569.5,312.5 569.5,290.5 Z"/></g>
<g><path style="opacity:0.999" fill="#45c9cc" d="M 343.5,393.5 C 420.584,469.083 497.25,545.25 573.5,622C 504.388,690.112 435.554,758.612 367,827.5C 286.549,742.447 257.216,642.114 279,526.5C 290.505,477.058 312.005,432.725 343.5,393.5 Z"/></g>
<g><path style="opacity:1" fill="#2d4161" d="M 346.5,424.5 C 412.43,488.763 477.764,553.763 542.5,619.5C 484.18,678.32 425.68,736.986 367,795.5C 298.207,711.969 277.541,617.636 305,512.5C 314.846,481.147 328.68,451.813 346.5,424.5 Z"/></g>
<g><path style="opacity:1" fill="#2d4161" d="M 582.5,450.5 C 626.115,447.646 665.115,459.48 699.5,486C 736.142,520.906 752.975,563.739 750,614.5C 746.325,645.884 734.325,673.551 714,697.5C 643.833,627.333 573.667,557.167 503.5,487C 526.599,467.783 552.933,455.616 582.5,450.5 Z"/></g>
<g><path style="opacity:0.998" fill="#fdfdfe" d="M 270.5,0.5 C 233.016,4.96 197.35,15.7933 163.5,33C 70.0469,84.849 16.5469,164.016 3,270.5C 1.34836,482.487 1.01503,694.487 2,906.5C 3.13835,949.864 12.805,991.197 31,1030.5C 64.628,1094.96 114.128,1142.96 179.5,1174.5C 178.737,1175.27 177.737,1175.77 176.5,1176C 131.992,1176.2 87.492,1176.7 43,1177.5C 28.6974,1176.55 14.5307,1176.22 0.5,1176.5C 0.5,784.5 0.5,392.5 0.5,0.5C 90.5,0.5 180.5,0.5 270.5,0.5 Z"/></g>
<g><path style="opacity:1" fill="#45c9cc" d="M 599.5,649.5 C 669.083,717.583 738.25,786.25 807,855.5C 807.507,856.996 807.007,858.163 805.5,859C 738.558,910.863 662.558,934.196 577.5,929C 509.032,923.413 448.198,899.246 395,856.5C 394.251,855.365 394.417,854.365 395.5,853.5C 463.854,785.812 531.854,717.812 599.5,649.5 Z"/></g>
<g><path style="opacity:0.8" fill="#304f6c" d="M 589.5,907.5 C 589.833,835.331 589.499,763.331 588.5,691.5C 588.783,690.711 589.283,690.044 590,689.5C 590.832,762.334 590.666,835.001 589.5,907.5 Z"/></g>
<g><path style="opacity:0.878" fill="#41b3bb" d="M 613.5,690.5 C 612.501,762.665 612.167,834.998 612.5,907.5C 611.168,834.999 611.168,762.332 612.5,689.5C 613.107,689.624 613.44,689.957 613.5,690.5 Z"/></g>
<g><path style="opacity:0.998" fill="#2d4161" d="M 613.5,690.5 C 620.468,696.636 626.968,703.302 633,710.5C 633.5,775.832 633.667,841.166 633.5,906.5C 626.496,906.773 619.496,907.106 612.5,907.5C 612.167,834.998 612.501,762.665 613.5,690.5 Z"/></g>
<g><path style="opacity:1" fill="#2d4262" d="M 588.5,691.5 C 589.499,763.331 589.833,835.331 589.5,907.5C 582.809,907.546 576.143,907.212 569.5,906.5C 569.5,864.833 569.5,823.167 569.5,781.5C 562.687,780.509 555.687,780.175 548.5,780.5C 548.5,821.5 548.5,862.5 548.5,903.5C 541.516,902.379 534.683,900.712 528,898.5C 527.333,850.167 527.333,801.833 528,753.5C 533.61,745.722 540.11,738.722 547.5,732.5C 548.498,741.141 548.831,749.808 548.5,758.5C 555.5,758.5 562.5,758.5 569.5,758.5C 569.333,742.497 569.5,726.497 570,710.5C 575.671,703.663 581.838,697.329 588.5,691.5 Z"/></g>
<g><path style="opacity:1" fill="#2d4363" d="M 654.5,732.5 C 661.514,737.681 667.68,743.681 673,750.5C 674.197,753.089 675.197,755.756 676,758.5C 675.605,790.486 675.438,822.486 675.5,854.5C 682.833,854.5 690.167,854.5 697.5,854.5C 697.333,828.165 697.5,801.831 698,775.5C 704.667,782.167 711.333,788.833 718,795.5C 718.667,825.167 718.667,854.833 718,884.5C 711.536,888.045 704.703,890.711 697.5,892.5C 697.5,887.167 697.5,881.833 697.5,876.5C 690.167,876.5 682.833,876.5 675.5,876.5C 675.666,883.841 675.5,891.174 675,898.5C 668.607,900.48 662.107,902.147 655.5,903.5C 654.5,846.504 654.167,789.504 654.5,732.5 Z"/></g>
<g><path style="opacity:0.999" fill="#2d4161" d="M 503.5,776.5 C 504.833,795.488 505.5,814.822 505.5,834.5C 505.167,853.833 504.833,873.167 504.5,892.5C 498.09,890.363 491.756,888.03 485.5,885.5C 484.333,856.172 484.167,826.839 485,797.5C 489.945,789.391 496.111,782.391 503.5,776.5 Z"/></g>
<g><path style="opacity:0.922" fill="#42b9be" d="M 569.5,781.5 C 562.833,781.5 556.167,781.5 549.5,781.5C 549.832,822.337 549.499,863.003 548.5,903.5C 548.5,862.5 548.5,821.5 548.5,780.5C 555.687,780.175 562.687,780.509 569.5,781.5 Z"/></g>
<g><path style="opacity:0.999" fill="#2e4463" d="M 740.5,818.5 C 751.495,829.328 762.661,839.994 774,850.5C 774.743,852.441 774.576,854.274 773.5,856C 762.667,862.249 752,868.749 741.5,875.5C 740.5,856.512 740.167,837.512 740.5,818.5 Z"/></g>
<g><path style="opacity:1" fill="#2e4463" d="M 461.5,819.5 C 462.662,837.995 462.829,856.662 462,875.5C 450.248,868.709 438.748,861.542 427.5,854C 439.035,842.632 450.369,831.132 461.5,819.5 Z"/></g>
<g><path style="opacity:0.996" fill="#fcfcfd" d="M 1197.5,950.5 C 1197.5,1030.17 1197.5,1109.83 1197.5,1189.5C 1129.17,1189.67 1060.83,1189.5 992.5,1189C 990.881,1188.76 989.881,1187.93 989.5,1186.5C 1103.19,1146.82 1172.52,1068.15 1197.5,950.5 Z"/></g>
<g><path style="opacity:0.996" fill="#f8f9f9" d="M 179.5,1174.5 C 198.118,1180.43 216.784,1186.26 235.5,1192C 245.292,1193.89 254.959,1195.73 264.5,1197.5C 176.5,1197.5 88.5,1197.5 0.5,1197.5C 0.5,1190.5 0.5,1183.5 0.5,1176.5C 14.5307,1176.22 28.6974,1176.55 43,1177.5C 87.492,1176.7 131.992,1176.2 176.5,1176C 177.737,1175.77 178.737,1175.27 179.5,1174.5 Z"/></g>
<g><path style="opacity:0.999" fill="#f7f7f7" d="M 989.5,1186.5 C 989.881,1187.93 990.881,1188.76 992.5,1189C 1060.83,1189.5 1129.17,1189.67 1197.5,1189.5C 1197.5,1192.17 1197.5,1194.83 1197.5,1197.5C 1111.17,1197.5 1024.83,1197.5 938.5,1197.5C 955.501,1194.38 972.501,1190.72 989.5,1186.5 Z"/></g>
</svg>
